<mxfile host="app.diagrams.net" agent="Mozilla/5.0 (Windows NT 10.0; Win64; x64) AppleWebKit/537.36 (KHTML, like Gecko) Chrome/131.0.0.0 Safari/537.36" version="26.0.4">
  <diagram name="Page-1" id="Dyy0em_aB4aogpMB755t">
    <mxGraphModel dx="797" dy="433" grid="1" gridSize="10" guides="1" tooltips="1" connect="1" arrows="1" fold="1" page="1" pageScale="1" pageWidth="850" pageHeight="1100" math="0" shadow="0">
      <root>
        <mxCell id="0" />
        <mxCell id="1" parent="0" />
        <mxCell id="LZDEMEoAmhQZNDTTc6_Y-1" value="Thread User" style="shape=umlActor;verticalLabelPosition=bottom;verticalAlign=top;html=1;outlineConnect=0;" vertex="1" parent="1">
          <mxGeometry x="140" y="190" width="30" height="60" as="geometry" />
        </mxCell>
        <mxCell id="LZDEMEoAmhQZNDTTc6_Y-2" value="" style="endArrow=none;dashed=1;html=1;rounded=0;" edge="1" parent="1" target="LZDEMEoAmhQZNDTTc6_Y-1">
          <mxGeometry width="50" height="50" relative="1" as="geometry">
            <mxPoint x="150" y="460" as="sourcePoint" />
            <mxPoint x="510" y="430" as="targetPoint" />
          </mxGeometry>
        </mxCell>
        <mxCell id="LZDEMEoAmhQZNDTTc6_Y-3" value="" style="endArrow=open;endSize=12;dashed=1;html=1;rounded=0;" edge="1" parent="1">
          <mxGeometry width="160" relative="1" as="geometry">
            <mxPoint x="670" y="370" as="sourcePoint" />
            <mxPoint x="160" y="370" as="targetPoint" />
          </mxGeometry>
        </mxCell>
        <mxCell id="LZDEMEoAmhQZNDTTc6_Y-4" value="Response generated as a comment" style="edgeLabel;html=1;align=center;verticalAlign=middle;resizable=0;points=[];" vertex="1" connectable="0" parent="LZDEMEoAmhQZNDTTc6_Y-3">
          <mxGeometry x="-0.0032" y="-1" relative="1" as="geometry">
            <mxPoint y="-19" as="offset" />
          </mxGeometry>
        </mxCell>
        <mxCell id="LZDEMEoAmhQZNDTTc6_Y-5" value="" style="endArrow=open;endFill=1;endSize=12;html=1;rounded=0;" edge="1" parent="1">
          <mxGeometry width="160" relative="1" as="geometry">
            <mxPoint x="160" y="330" as="sourcePoint" />
            <mxPoint x="670" y="330" as="targetPoint" />
          </mxGeometry>
        </mxCell>
        <mxCell id="LZDEMEoAmhQZNDTTc6_Y-6" value="GenerateAiComments(postText)" style="edgeLabel;html=1;align=center;verticalAlign=middle;resizable=0;points=[];" vertex="1" connectable="0" parent="LZDEMEoAmhQZNDTTc6_Y-5">
          <mxGeometry x="0.1771" y="2" relative="1" as="geometry">
            <mxPoint x="-35" y="-18" as="offset" />
          </mxGeometry>
        </mxCell>
        <mxCell id="LZDEMEoAmhQZNDTTc6_Y-7" value="" style="html=1;points=[[0,0,0,0,5],[0,1,0,0,-5],[1,0,0,0,5],[1,1,0,0,-5]];perimeter=orthogonalPerimeter;outlineConnect=0;targetShapes=umlLifeline;portConstraint=eastwest;newEdgeStyle={&quot;curved&quot;:0,&quot;rounded&quot;:0};" vertex="1" parent="1">
          <mxGeometry x="150" y="310" width="10" height="80" as="geometry" />
        </mxCell>
        <mxCell id="LZDEMEoAmhQZNDTTc6_Y-8" value="" style="endArrow=none;dashed=1;html=1;rounded=0;" edge="1" parent="1" source="LZDEMEoAmhQZNDTTc6_Y-11" target="LZDEMEoAmhQZNDTTc6_Y-9">
          <mxGeometry width="50" height="50" relative="1" as="geometry">
            <mxPoint x="670.03" y="610" as="sourcePoint" />
            <mxPoint x="669.55" y="250" as="targetPoint" />
          </mxGeometry>
        </mxCell>
        <mxCell id="LZDEMEoAmhQZNDTTc6_Y-9" value=":System" style="rounded=0;whiteSpace=wrap;html=1;" vertex="1" parent="1">
          <mxGeometry x="610" y="190" width="120" height="60" as="geometry" />
        </mxCell>
        <mxCell id="LZDEMEoAmhQZNDTTc6_Y-10" value="" style="endArrow=none;dashed=1;html=1;rounded=0;" edge="1" parent="1" target="LZDEMEoAmhQZNDTTc6_Y-11">
          <mxGeometry width="50" height="50" relative="1" as="geometry">
            <mxPoint x="670" y="460" as="sourcePoint" />
            <mxPoint x="670" y="250" as="targetPoint" />
          </mxGeometry>
        </mxCell>
        <mxCell id="LZDEMEoAmhQZNDTTc6_Y-11" value="" style="html=1;points=[[0,0,0,0,5],[0,1,0,0,-5],[1,0,0,0,5],[1,1,0,0,-5]];perimeter=orthogonalPerimeter;outlineConnect=0;targetShapes=umlLifeline;portConstraint=eastwest;newEdgeStyle={&quot;curved&quot;:0,&quot;rounded&quot;:0};" vertex="1" parent="1">
          <mxGeometry x="665" y="310" width="10" height="80" as="geometry" />
        </mxCell>
      </root>
    </mxGraphModel>
  </diagram>
</mxfile>
